/* XPM */
static char *result[] = {
/* columns rows colors chars-per-pixel */
"32 32 39 1 ",
"  c black",
". c #00003F",
"X c #00002A",
"o c #00000E",
"O c #000001",
"+ c #0000F7",
"@ c #0000F8",
"# c #0000E5",
"$ c #0000CC",
"% c #00009C",
"& c #000066",
"* c #000027",
"= c #000005",
"- c blue",
"; c #0000A6",
": c #000041",
"> c #000006",
", c #0000F1",
"< c #0000A5",
"1 c #00002C",
"2 c #0000DE",
"3 c #000008",
"4 c #0000FB",
"5 c #000086",
"6 c #000007",
"7 c #0000F9",
"8 c #00003E",
"9 c #00004A",
"0 c #00007E",
"q c #0000A4",
"w c #0000E0",
"e c #000003",
"r c #000025",
"t c #000082",
"y c #0000F6",
"u c #000004",
"i c #000072",
"p c #000002",
"a c white",
/* pixels */
"                                ",
"                                ",
"                                ",
"                                ",
"                                ",
"                                ",
"                                ",
"                                ",
"                                ",
"                                ",
"                                ",
"                                ",
"..XoO                           ",
"+@#$%&*=                        ",
"------#;:>                      ",
"--------,<1                     ",
"----------2&3                   ",
"-----------456                  ",
"+7----------456                 ",
"890qw--------453                ",
"   ert2-------4&                ",
"      r%y------21               ",
"       uiy------<>              ",
"        piy-----,:              ",
"         u%------;=             ",
"          r2-----#*             ",
"           t------&             ",
"           rw-----%O            ",
"           eq-----$o            ",
"            0-----#X            ",
"            97----@.            ",
"            8+----+.            "
};
