/* XPM */
static char *result[] = {
/* columns rows colors chars-per-pixel */
"32 32 39 1 ",
"  c black",
". c #00003E",
"X c #0000F7",
"o c blue",
"O c #00003F",
"+ c #00004A",
"@ c #0000F9",
"# c #0000F8",
"$ c #00007E",
"% c #0000E5",
"& c #00002A",
"* c #000003",
"= c #0000A4",
"- c #0000CC",
"; c #00000E",
": c #000025",
"> c #0000E0",
", c #00009C",
"< c #000001",
"1 c #000082",
"2 c #000066",
"3 c #0000DE",
"4 c #000027",
"5 c #000004",
"6 c #0000A6",
"7 c #000005",
"8 c #000002",
"9 c #000072",
"0 c #0000F6",
"q c #0000F1",
"w c #000041",
"e c #0000A5",
"r c #000006",
"t c #00002C",
"y c #0000FB",
"u c #000086",
"i c #000008",
"p c #000007",
"a c white",
/* pixels */
"            .XooooXO            ",
"            +@oooo#O            ",
"            $ooooo%&            ",
"           *=ooooo-;            ",
"           :>ooooo,<            ",
"           1oooooo2             ",
"          :3ooooo%4             ",
"         5,oooooo67             ",
"        890oooooqw              ",
"       590ooooooer              ",
"      :,0oooooo3t               ",
"   *:13oooooooy2                ",
".+$=>ooooooooyui                ",
"X@ooooooooooyup                 ",
"oooooooooooyup                  ",
"oooooooooo32i                   ",
"ooooooooqet                     ",
"oooooo%6wr                      ",
"X#%-,247                        ",
"OO&;<                           ",
"                                ",
"                                ",
"                                ",
"                                ",
"                                ",
"                                ",
"                                ",
"                                ",
"                                ",
"                                ",
"                                ",
"                                "
};
