/* XPM */
static char *result[] = {
/* columns rows colors chars-per-pixel */
"32 32 39 1 ",
"  c black",
". c #000001",
"X c #00000E",
"o c #00002A",
"O c #00003F",
"+ c #000005",
"@ c #000027",
"# c #000066",
"$ c #00009C",
"% c #0000CC",
"& c #0000E5",
"* c #0000F8",
"= c #0000F7",
"- c #000006",
"; c #000041",
": c #0000A6",
"> c blue",
", c #00002C",
"< c #0000A5",
"1 c #0000F1",
"2 c #000008",
"3 c #0000DE",
"4 c #000007",
"5 c #000086",
"6 c #0000FB",
"7 c #0000F9",
"8 c #0000E0",
"9 c #0000A4",
"0 c #00007E",
"q c #00004A",
"w c #00003E",
"e c #000082",
"r c #000025",
"t c #000003",
"y c #0000F6",
"u c #000072",
"i c #000004",
"p c #000002",
"a c white",
/* pixels */
"                                ",
"                                ",
"                                ",
"                                ",
"                                ",
"                                ",
"                                ",
"                                ",
"                                ",
"                                ",
"                                ",
"                                ",
"                           .XoOO",
"                        +@#$%&*=",
"                      -;:&>>>>>>",
"                     ,<1>>>>>>>>",
"                   2#3>>>>>>>>>>",
"                  456>>>>>>>>>>>",
"                 456>>>>>>>>>>7=",
"                256>>>>>>>>890qw",
"                #6>>>>>>>3ert   ",
"               ,3>>>>>>y$r      ",
"              -<>>>>>>yui       ",
"              ;1>>>>>yup        ",
"             +:>>>>>>$i         ",
"             @&>>>>>3r          ",
"             #>>>>>>e           ",
"            .$>>>>>8r           ",
"            X%>>>>>9t           ",
"            o&>>>>>0            ",
"            O*>>>>7q            ",
"            O=>>>>=w            "
};
