/* XPM */
static char *result[] = {
/* columns rows colors chars-per-pixel */
"32 32 39 1 ",
"  c black",
". c #00003F",
"X c #0000F7",
"o c blue",
"O c #00003E",
"+ c #0000F8",
"@ c #0000F9",
"# c #00004A",
"$ c #00002A",
"% c #0000E5",
"& c #00007E",
"* c #00000E",
"= c #0000CC",
"- c #0000A4",
"; c #000003",
": c #000001",
"> c #00009C",
", c #0000E0",
"< c #000025",
"1 c #000066",
"2 c #000082",
"3 c #000027",
"4 c #0000DE",
"5 c #000005",
"6 c #0000A6",
"7 c #000004",
"8 c #000041",
"9 c #0000F1",
"0 c #0000F6",
"q c #000072",
"w c #000002",
"e c #000006",
"r c #0000A5",
"t c #00002C",
"y c #0000FB",
"u c #000008",
"i c #000086",
"p c #000007",
"a c white",
/* pixels */
"            .XooooXO            ",
"            .+oooo@#            ",
"            $%ooooo&            ",
"            *=ooooo-;           ",
"            :>ooooo,<           ",
"             1oooooo2           ",
"             3%ooooo4<          ",
"             56oooooo>7         ",
"              89ooooo0qw        ",
"              eroooooo0q7       ",
"               t4oooooo0><      ",
"                1yooooooo42<;   ",
"                uiyoooooooo,-&#O",
"                 piyoooooooooo@X",
"                  piyooooooooooo",
"                   u14oooooooooo",
"                     tr9oooooooo",
"                      e86%oooooo",
"                        531>=%+X",
"                           :*$..",
"                                ",
"                                ",
"                                ",
"                                ",
"                                ",
"                                ",
"                                ",
"                                ",
"                                ",
"                                ",
"                                ",
"                                "
};
