/* XPM */
static char *result[] = {
/* columns rows colors chars-per-pixel */
"32 32 233 2 ",
"   c black",
".  c #020101",
"X  c #050302",
"o  c #4C321C",
"O  c #9F6A3B",
"+  c #9D693A",
"@  c #3B2816",
"#  c #030201",
"$  c #0A0604",
"%  c #0A0704",
"&  c #070402",
"*  c #724C2A",
"=  c #E49854",
"-  c #E29653",
";  c #55391F",
":  c #3A2716",
">  c #AB723F",
",  c #AA713F",
"<  c #C48348",
"1  c #E09553",
"2  c #DF9552",
"3  c #54381F",
"4  c #040201",
"5  c #100A06",
"6  c #110B06",
"7  c #0D0905",
"8  c #53371E",
"9  c #CF8A4C",
"0  c #D79050",
"q  c #E19653",
"w  c #D89050",
"e  c #CD894C",
"r  c #CE894C",
"t  c #4E341D",
"y  c #271A0F",
"u  c #AF7541",
"i  c #B97B44",
"p  c #BB7D45",
"a  c #865A32",
"s  c #25190E",
"d  c #865931",
"f  c #0F0A05",
"g  c #040302",
"h  c #150E08",
"j  c #3F2A17",
"k  c #BF7F47",
"l  c #C8854A",
"z  c #CB874B",
"x  c #825730",
"c  c #5A3C21",
"v  c #E39754",
"b  c #1F150B",
"n  c #B67943",
"m  c #A06B3B",
"M  c #1C130A",
"N  c #1D130B",
"B  c #120C07",
"V  c #5B3D22",
"C  c #E59955",
"Z  c #744D2B",
"A  c #010000",
"S  c #1D0000",
"D  c #290000",
"F  c #280000",
"G  c #270302",
"H  c #22130B",
"J  c #3D2916",
"K  c #B37742",
"L  c #946337",
"P  c #080503",
"I  c #0B0704",
"U  c #20150C",
"Y  c #624124",
"T  c #BF7F46",
"R  c #614124",
"E  c #020000",
"W  c #A70000",
"Q  c #EC0000",
"!  c #E80000",
"~  c #E90000",
"^  c #E50F08",
"/  c #D07943",
"(  c #AB7541",
")  c #20170D",
"_  c #0C0A05",
"`  c #010100",
"'  c #452E19",
"]  c #815630",
"[  c #130D07",
"{  c #230000",
"}  c #3B0000",
"|  c #C80000",
" . c red",
".. c #FF0301",
"X. c #FB190E",
"o. c #F72A17",
"O. c #EA6D3C",
"+. c #C86337",
"@. c #430905",
"#. c #2B1D10",
"$. c #684526",
"%. c #9E0000",
"&. c #F50000",
"*. c #FB0000",
"=. c #FC0C06",
"-. c #E47742",
";. c #E37F47",
":. c #FA180E",
">. c #FC0603",
",. c #F90100",
"<. c #BE0000",
"1. c #050000",
"2. c #372716",
"3. c #D08B4D",
"4. c #8D5F35",
"5. c #0A0905",
"6. c #030503",
"7. c #A80000",
"8. c #FD0905",
"9. c #EB5C33",
"0. c #E96136",
"q. c #FD0D07",
"w. c #F40000",
"e. c #C30000",
"r. c #A10000",
"t. c #480000",
"y. c #6F2917",
"u. c #DE9352",
"i. c #AA6236",
"p. c #440000",
"a. c #450000",
"s. c #FE0402",
"d. c #FF0402",
"f. c #FF0100",
"g. c #D90000",
"h. c #150000",
"j. c #380000",
"k. c #F12917",
"l. c #DE9351",
"z. c #E76136",
"x. c #F70101",
"c. c #F80000",
"v. c #7E0000",
"b. c #FF0202",
"n. c #FF3D3D",
"m. c #FF5151",
"M. c #FF1313",
"N. c #B60000",
"B. c #9C0000",
"V. c #590000",
"C. c #790000",
"Z. c #F70000",
"A. c #F72917",
"S. c #FF0101",
"D. c #AD0000",
"F. c #530000",
"G. c #260000",
"H. c #FF0606",
"J. c #FFBABA",
"K. c #FFF8F8",
"L. c #FF3535",
"P. c #E10000",
"I. c #1E0000",
"U. c #2A0000",
"Y. c #FE0000",
"T. c #F62A17",
"R. c #DE9553",
"E. c #E96337",
"W. c #710000",
"Q. c #FF0404",
"!. c #FF6F6F",
"~. c #FF9A9A",
"^. c #FF7171",
"/. c #FF5C5C",
"(. c #FF1111",
"). c #E00000",
"_. c #1C0000",
"`. c #EA0000",
"'. c #F9190E",
"]. c #EB5831",
"[. c #F23B20",
"{. c #720000",
"}. c #AA0000",
"|. c #FF0C0C",
" X c #FFCCCC",
".X c #FFF2F2",
"XX c #FF2B2B",
"oX c #8D0000",
"OX c #DE0000",
"+X c #FF0707",
"@X c #FF6B6B",
"#X c #FF7E7E",
"$X c #FF1717",
"%X c #FF1A1A",
"&X c #FF7373",
"*X c #FF5656",
"=X c #FF0303",
"-X c #030000",
";X c #B90000",
":X c #E30000",
">X c #FF3939",
",X c #FFFCFC",
"<X c #FFBCBC",
"1X c #550000",
"2X c #770000",
"3X c #760000",
"4X c #670000",
"5X c #0B0000",
"6X c #FF7B7B",
"7X c #FF8B8B",
"8X c #FF5A5A",
"9X c #2B0000",
"0X c #EB0000",
"qX c #FF4646",
"wX c white",
"eX c #FFABAB",
"rX c #110000",
"tX c #860000",
"yX c #FF1C1C",
"uX c #FF6363",
"iX c #FF4242",
"pX c #B40000",
"aX c #630000",
"sX c #2D0000",
"dX c #340000",
"fX c #EF0000",
"gX c #FD0000",
"hX c #FC0000",
"jX c #800000",
"kX c #120000",
"lX c #4E0000",
"zX c #540000",
"xX c white",
/* pixels */
"                                                                ",
"                                                                ",
"                                                                ",
"                                              . X X X .         ",
"                                              o O + + @         ",
"                                      # $ % & * = - - ;         ",
"                                      : > > , < 1 2 2 3         ",
"                              4 5 6 7 8 9 0 q w e r e t         ",
"                              y u i p a s * - d s y y f         ",
"                          g h j k l z x   c v *                 ",
"                          b n m s M N B   V C Z                 ",
"          A S D F F F G H J K L P     I U Y T R                 ",
"          E W Q ! ! ~ ^ / ( ) _ `     ' 9 ] [ %                 ",
"        { } |  . ...X.o.O.+.@.F E 7 #.V K $.                    ",
"      E %.&.*. . .=.-.;.:.>.,.<.1.2.3.4.5.6.                    ",
"      E 7. . . . .8.9.0.q.w.e.r.t.y.u.i.p.p.a.{                 ",
"      E W  . . . . .s.d.f.g.h.j.Q k.l.z.x.c.*.v.                ",
"      E W b.n.m.M. . .&.N.B.V.C.Z.A.l.0.S. . .D.F.G.            ",
"      E W H.J.K.L. . .P.I.U.! Y. .T.R.E.S. . .Y. .W.            ",
"      E W Q.!.~.^./.(.)._.F `. . .'.].[.f. . . . .{.            ",
"      E }. . .|. X.XXX)._.D `. . . . . . . . . . .{.            ",
"      A V.oXOX+X@X#X$X)._.D `.%X&X*X=X . . . . . .{.            ",
"          -X;X . . . .:X_.D `.>X,X<XQ. . . . . . .{.            ",
"          -X1X2X3X3X3X4X5XU.`.%X!.6X7X8XS. . . . .{.            ",
"                          9X0X . .qXwXeXb. . . . .{.            ",
"                          rXV.tXZ.yXuXiXS. . .pXaXsX            ",
"                              dXfXgXhXhXhXhX .jX                ",
"                              kXlXF.F.F.F.F.zX9X                ",
"                                                                ",
"                                                                ",
"                                                                ",
"                                                                "
};
