/* XPM */
static char *result[] = {
/* columns rows colors chars-per-pixel */
"32 32 5 1 ",
"  c black",
". c #00003F",
"X c #0000F7",
"o c blue",
"O c white",
/* pixels */
"            .XooooX.            ",
"            .XooooX.            ",
"            .XooooX.            ",
"            .XooooX.            ",
"            .XooooX.            ",
"            .XooooX.            ",
"            .XooooX.            ",
"            .XooooX.            ",
"            .XooooX.            ",
"            .XooooX.            ",
"            .XooooX.            ",
"            .XooooX.            ",
"            .XooooX.            ",
"            .XooooX.            ",
"            .XooooX.            ",
"            .XooooX.            ",
"            .XooooX.            ",
"            .XooooX.            ",
"            .XooooX.            ",
"            .XooooX.            ",
"            .XooooX.            ",
"            .XooooX.            ",
"            .XooooX.            ",
"            .XooooX.            ",
"            .XooooX.            ",
"            .XooooX.            ",
"            .XooooX.            ",
"            .XooooX.            ",
"            .XooooX.            ",
"            .XooooX.            ",
"            .XooooX.            ",
"            .XooooX.            "
};
