/* XPM */
static char *result[] = {
/* columns rows colors chars-per-pixel */
"32 32 40 1 ",
"  c black",
". c #010100",
"X c #030300",
"o c #020200",
"O c #151500",
"+ c #0A0A00",
"@ c #1F1F00",
"# c #F0F000",
"$ c #A3A300",
"% c #050500",
"& c #676700",
"* c #E8E800",
"= c #212100",
"- c #D7D700",
"; c yellow",
": c #9E9E00",
"> c #616100",
", c #D6D600",
"< c #040400",
"1 c #898900",
"2 c #F9F900",
"3 c #FBFB00",
"4 c #F7F700",
"5 c #242400",
"6 c #FEFE00",
"7 c #FAFA00",
"8 c #FDFD00",
"9 c #9C9C00",
"0 c #EEEE00",
"q c #5D5D00",
"w c #FCFC00",
"e c #D4D400",
"r c #060600",
"t c #626200",
"y c #929200",
"u c #5C5C00",
"i c #D8D800",
"p c #202000",
"a c #EAEA00",
"s c white",
/* pixels */
"                                ",
"                                ",
"    ..                     .    ",
"   X  .                   . o   ",
"  X Oo o                 . + X  ",
" X @#$  o               % &*= X ",
".  -;;:  o             % >;;,  .",
"< 1;23;:  o           % >;;4;1 <",
" 5;;6;7;:  o         % >;;8;;;5 ",
" 9;3;;;7;:  o       % >;;8;;3;9 ",
"O0;6;;;;7;:  o     % >;;8;;;6;0O",
"q;w;;;;;;7;:  o   % >;;8;;;;;w;q",
"$;w;;;;;;;7;:  o % >;;8;;;;;;w;$",
"e;8;;;;;;;;7;:  r >;;8;;;;;;;8;e",
"6;;;;;;;;;;;7;:  t;;8;;;;;;;;;;6",
";;;;;;;;;;;;;7;yu;;8;;;;;;;;;;;;",
";;;;;;;;;;;;;;8;;;6;;;;;;;;;;;;;",
"6;;;;;;;;;;;;;;886;;;;;;;;;;;;;6",
"e;8;;;;;;;;;;;;;;;;;;;;;;;;;;8;e",
"$;w;;;;;;;;;;;;;;;;;;;;;;;;;;w;$",
"q;w;;;;;;;;;;;;;;;;;;;;;;;;;;w;q",
"O0;6;;;;;;;;;;;;;;;;;;;;;;;;6;0O",
" 9;3;;;;;;;;;;;;;;;;;;;;;;;;3;9 ",
" 5;;6;;;;;;;;;;;;;;;;;;;;;;6;;5 ",
"< 1;2;;;;;;;;;;;;;;;;;;;;;;2;1 <",
".  i;7;;;;;;;;;;;;;;;;;;;;7;i  .",
" X pa;7;;;;;;;;;;;;;;;;;;7;ap X ",
"  < @a;26;;;;;;;;;;;;;;62;a@ <  ",
"   % pi;;36;;;;;;;;;;63;;ip %   ",
"    <  1;;;ww8;;;;8ww;;;1  <    ",
"     X  590;;;;;;;;;;095  X     ",
"      .<  Oq$e6;;6e$qO  <.      "
};
