/* XPM */
static char *result[] = {
/* columns rows colors chars-per-pixel */
"32 32 40 1 ",
"  c black",
". c #010100",
"X c #040400",
"o c #151500",
"O c #5D5D00",
"+ c #A3A300",
"@ c #D4D400",
"# c #FEFE00",
"$ c yellow",
"% c #030300",
"& c #242400",
"* c #9C9C00",
"= c #EEEE00",
"- c #898900",
"; c #FCFC00",
": c #FDFD00",
"> c #050500",
", c #202000",
"< c #D8D800",
"1 c #FBFB00",
"2 c #1F1F00",
"3 c #EAEA00",
"4 c #F9F900",
"5 c #FAFA00",
"6 c #5C5C00",
"7 c #929200",
"8 c #626200",
"9 c #9E9E00",
"0 c #616100",
"q c #060600",
"w c #020200",
"e c #F7F700",
"r c #D6D600",
"t c #D7D700",
"y c #212100",
"u c #E8E800",
"i c #676700",
"p c #F0F000",
"a c #0A0A00",
"s c white",
/* pixels */
"      .X  oO+@#$$#@+Oo  X.      ",
"     %  &*=$$$$$$$$$$=*&  %     ",
"    X  -$$$;;:$$$$:;;$$$-  X    ",
"   > ,<$$1#$$$$$$$$$$#1$$<, >   ",
"  X 23$4#$$$$$$$$$$$$$$#4$32 X  ",
" % ,3$5$$$$$$$$$$$$$$$$$$5$3, % ",
".  <$5$$$$$$$$$$$$$$$$$$$$5$<  .",
"X -$4$$$$$$$$$$$$$$$$$$$$$$4$- X",
" &$$#$$$$$$$$$$$$$$$$$$$$$$#$$& ",
" *$1$$$$$$$$$$$$$$$$$$$$$$$$1$* ",
"o=$#$$$$$$$$$$$$$$$$$$$$$$$$#$=o",
"O$;$$$$$$$$$$$$$$$$$$$$$$$$$$;$O",
"+$;$$$$$$$$$$$$$$$$$$$$$$$$$$;$+",
"@$:$$$$$$$$$$$$$$$$$$$$$$$$$$:$@",
"#$$$$$$$$$$$$$#::$$$$$$$$$$$$$$#",
"$$$$$$$$$$$$$#$$$:$$$$$$$$$$$$$$",
"$$$$$$$$$$$$:$$67$5$$$$$$$$$$$$$",
"#$$$$$$$$$$:$$8  9$5$$$$$$$$$$$#",
"@$:$$$$$$$:$$0 q  9$5$$$$$$$$:$@",
"+$;$$$$$$:$$0 > w  9$5$$$$$$$;$+",
"O$;$$$$$:$$0 >   w  9$5$$$$$$;$O",
"o=$#$$$:$$0 >     w  9$5$$$$#$=o",
" *$1$$:$$0 >       w  9$5$$$1$* ",
" &$$$:$$0 >         w  9$5$#$$& ",
"X -$e$$0 >           w  9$14$- X",
".  r$$0 >             w  9$$t  .",
" % yui >               w  +p2 % ",
"  % a .                 w wo %  ",
"   w .                   .  %   ",
"    .                     ..    ",
"                                ",
"                                "
};
