/* XPM */
static char *result[] = {
/* columns rows colors chars-per-pixel */
"32 32 36 1 ",
"  c black",
". c #020200",
"X c #272700",
"o c #686800",
"O c #A8A800",
"+ c #D6D600",
"@ c #FCFC00",
"# c yellow",
"$ c #343400",
"% c #979700",
"& c #DFDF00",
"* c #FBFB00",
"= c #171700",
"- c #868600",
"; c #EAEA00",
": c #C4C400",
"> c #353500",
", c #D3D300",
"< c #CFCF00",
"1 c #1E1E00",
"2 c #FEFE00",
"3 c #989800",
"4 c #0E0E00",
"5 c #0D0D00",
"6 c #FDFD00",
"7 c #969600",
"8 c #0C0C00",
"9 c #FAFA00",
"0 c #707000",
"q c #F2F200",
"w c #010100",
"e c #6A6A00",
"r c #040400",
"t c #C5C500",
"y c #161600",
"u c white",
/* pixels */
"         .XoO+@##@+OoX.         ",
"       .$%&*########*&%$.       ",
"      =-;##############;-=      ",
"     $:##################:>     ",
"    $,####################<1    ",
"   $,####################234    ",
"  =:####################2%5     ",
" .-####################2%5      ",
" $;###################2%5       ",
".%###################2%5        ",
"X&##################2%5         ",
"o*#################2%5          ",
"O#################2%5           ",
"+################2%5            ",
"@###############2%5             ",
"###############678              ",
"###############90               ",
"@###############qow             ",
"+################qow            ",
"O#################qow           ",
"o*#################qow          ",
"X&##################qow         ",
".%###################qow        ",
" $;###################qow       ",
" .-####################qow      ",
"  =:####################qow     ",
"   $,####################qer    ",
"    $,####################ty    ",
"     $:##################:>     ",
"      =-;##############;-=      ",
"       .$%&*########*&%$.       ",
"         .XoO+@##@+OoX.         "
};
